<svg fill="currentColor" xmlns="http://www.w3.org/2000/svg" viewBox="0 0 380 380" width="{{ .width }}" height="{{ .height }}">
<g transform="translate(0.000000,380.000000) scale(0.100000,-0.100000)" stroke="none">
<path d="M610 3566 c-147 -33 -252 -142 -279 -291 -15 -82 -15 -2388 0 -2470
28 -154 140 -266 294 -294 82 -15 2045 -15 2045 0 0 6 -18 73 -40 149 -22 76
-40 142 -40 147 0 4 80 -71 177 -168 158 -155 614 -569 628 -569 11 0 5 3145
-6 3205 -28 154 -140 266 -294 294 -88 16 -2411 14 -2485 -3z m990 -831 c-3
-5 -42 -22 -87 -37 -46 -15 -111 -42 -145 -59 -66 -33 -198 -115 -198 -123 0
-3 33 10 73 29 175 81 318 112 547 121 246 10 446 -25 645 -112 114 -50 115
-50 60 -10 -66 49 -224 128 -303 151 -127 38 -32 59 114 25 97 -22 227 -79
299 -131 36 -26 50 -47 86 -127 119 -271 185 -540 205 -827 l6 -100 -41 -47
c-93 -105 -269 -190 -422 -204 l-76 -6 -57 69 c-60 75 -64 83 -42 83 31 0 179
84 231 132 31 28 54 53 52 55 -3 2 -33 -12 -68 -31 -35 -19 -109 -51 -164 -71
-336 -125 -705 -101 -1039 67 l-79 40 24 -31 c36 -46 136 -118 199 -142 30
-12 58 -25 63 -29 4 -3 -16 -37 -45 -74 l-53 -68 -80 5 c-149 7 -301 81 -410
199 -51 55 -54 61 -50 101 2 23 7 80 10 127 15 227 88 509 196 754 25 55 53
102 72 118 38 34 149 93 224 119 114 40 267 61 253 34z"/>
<path d="M1445 2086 c-40 -17 -90 -75 -105 -121 -47 -142 91 -285 237 -246
138 37 190 216 94 325 -45 51 -157 72 -226 42z"/>
<path d="M2100 2080 c-145 -86 -118 -317 41 -360 107 -29 219 67 219 187 -1
107 -69 184 -168 190 -44 3 -65 -1 -92 -17z"/>
</g>
</svg>
