<svg fill="currentColor" xmlns="http://www.w3.org/2000/svg" viewBox="0 0 512 512" width="{{ .width }}" height="{{ .height }}">
<g transform="translate(0.000000,512.000000) scale(0.100000,-0.100000)" stroke="none">
<path d="M1120 4860 c-41 -5 -101 -16 -133 -24 -32 -9 -66 -16 -75 -16 -19 0
-217 -98 -265 -132 -18 -12 -36 -28 -40 -35 -4 -7 -13 -13 -19 -13 -14 0 -158
-144 -158 -158 0 -6 -6 -15 -13 -19 -34 -20 -154 -243 -167 -310 -4 -21 -16
-74 -26 -118 -18 -76 -19 -152 -19 -1470 0 -1318 1 -1394 19 -1470 10 -44 22
-97 26 -118 13 -67 133 -290 167 -310 7 -4 13 -13 13 -19 0 -14 144 -158 158
-158 6 0 15 -6 19 -13 20 -34 243 -154 310 -167 21 -4 74 -16 118 -26 76 -18
152 -19 1470 -19 1318 0 1394 1 1470 19 44 10 97 22 118 26 67 13 290 133 310
167 4 7 13 13 19 13 14 0 158 144 158 158 0 6 6 15 13 19 34 20 154 243 167
310 4 21 16 74 26 118 18 76 19 152 19 1470 0 1318 -1 1394 -19 1470 -10 44
-22 97 -26 118 -13 67 -133 290 -167 310 -7 4 -13 13 -13 19 0 14 -144 158
-158 158 -6 0 -15 6 -19 13 -4 7 -22 23 -40 35 -47 33 -245 132 -264 132 -9 0
-52 10 -95 22 l-79 22 -1365 2 c-751 1 -1399 -2 -1440 -6z m1720 -921 c124
-23 207 -48 283 -85 27 -13 53 -24 59 -24 11 0 130 -69 138 -81 3 -3 14 -9 26
-13 12 -3 41 -24 65 -46 24 -22 47 -40 50 -40 7 0 87 -79 177 -172 23 -25 42
-49 42 -54 0 -5 13 -24 29 -43 32 -37 151 -252 151 -272 0 -15 136 -5 186 13
26 9 36 9 48 -1 22 -18 20 -40 -7 -92 -35 -69 -49 -88 -96 -136 l-44 -45 4
-96 c7 -217 -2 -370 -26 -460 -34 -130 -63 -208 -109 -300 l-41 -83 42 -39
c33 -31 42 -47 44 -77 5 -83 3 -89 -91 -181 -49 -50 -90 -95 -90 -101 0 -16
-8 -14 -37 9 -34 27 -51 25 -59 -5 -4 -17 -1 -32 10 -44 14 -15 14 -20 3 -30
-38 -31 -111 -19 -146 23 -23 28 -71 19 -140 -27 -75 -49 -259 -137 -287 -137
-11 0 -48 -9 -83 -20 -193 -61 -457 -66 -651 -13 -30 8 -81 22 -114 29 -59 15
-306 130 -306 143 0 3 -17 15 -37 26 -21 11 -53 32 -71 47 -18 15 -36 28 -41
28 -4 0 -23 -13 -41 -30 -34 -31 -54 -36 -124 -31 -29 2 -45 10 -60 29 -11 15
-33 39 -48 54 -16 14 -28 30 -28 35 0 5 -20 30 -45 57 -25 27 -45 55 -45 61 0
6 11 18 25 25 28 15 33 47 9 57 -9 3 -30 -2 -46 -12 -25 -14 -32 -15 -39 -4
-24 37 3 125 47 153 37 25 45 48 27 82 -8 16 -19 43 -23 59 -5 17 -25 77 -45
135 -37 105 -57 245 -54 375 2 49 2 49 9 -15 9 -70 39 -156 71 -201 10 -15 19
-32 19 -38 0 -6 25 -29 56 -53 50 -37 64 -43 118 -46 53 -3 71 0 116 23 29 15
74 47 100 71 55 52 150 191 150 220 0 11 5 25 10 30 6 6 24 51 41 100 51 150
62 431 22 558 -26 82 -86 178 -133 211 -39 28 -48 30 -130 30 -84 0 -91 -2
-136 -34 -43 -30 -46 -31 -32 -9 9 14 29 38 45 55 15 17 37 41 49 54 38 44
222 199 236 199 5 0 21 8 36 18 79 54 109 72 123 72 7 0 28 7 44 16 52 27 158
65 210 75 28 5 82 15 120 23 113 22 330 20 465 -5z m-1596 -579 c18 -10 44
-33 59 -49 24 -28 27 -39 27 -105 0 -55 -4 -79 -16 -90 -14 -15 -14 -17 1 -22
9 -4 17 -5 19 -3 1 2 15 27 31 54 16 28 35 56 42 63 7 7 13 19 13 27 0 24 125
121 174 135 40 11 52 10 91 -4 125 -48 201 -250 174 -466 -10 -82 -85 -314
-107 -329 -4 -3 -21 -25 -38 -48 -42 -58 -122 -121 -168 -134 -61 -17 -103 -3
-158 49 -60 58 -96 149 -105 266 l-6 78 -54 54 c-52 52 -54 52 -64 31 -12 -26
-94 -67 -133 -67 -30 0 -120 43 -133 62 -15 24 -33 83 -33 108 0 31 21 92 39
114 8 9 35 26 60 37 l46 19 0 63 c0 53 4 68 30 104 17 23 44 48 60 57 43 21
111 20 149 -4z"/>
<path d="M1484 3181 c-18 -11 -43 -34 -56 -53 -41 -55 -42 -59 -13 -48 50 19
81 12 113 -25 53 -60 69 -174 33 -229 -42 -64 -67 -76 -154 -76 l-79 0 7 -36
c8 -44 48 -107 81 -129 59 -39 145 3 203 100 57 94 70 146 71 273 0 126 -10
161 -62 213 -36 35 -96 40 -144 10z"/>
</g>
</svg>
